<svg  viewBox="0 0 166 57" fill="none" xmlns="http://www.w3.org/2000/svg">
<path d="M0.295019 20.3485C4.08404 19.3719 6.64625 19.3458 9.32046 20.3485C12.7468 21.9364 13.4153 24.8613 16.1731 26.9504C13.2482 26.9504 14.7524 26.9504 11.4932 26.9504C5.37214 26.9504 1.99519 25.9362 0.295019 20.3485Z" fill="white"/>
<path d="M0 35.5425C2.79308 32.8022 4.99897 31.4985 7.81626 31.0298C11.5775 30.6918 13.6189 32.8905 17.0518 33.3209C14.5187 34.7833 15.8215 34.0312 12.9989 35.6608C7.69788 38.7214 4.26625 39.5315 0 35.5425Z" fill="white"/>
<path d="M7.34043 48.8488C8.38916 45.0791 9.64765 42.8471 11.8531 41.0325C14.9415 38.8592 17.8088 39.7427 20.9969 38.3989C19.5345 40.932 20.2866 39.6292 18.657 42.4518C15.5964 47.7528 13.0296 50.1702 7.34043 48.8488Z" fill="white"/>
<path d="M20.3468 56.7035C19.3702 52.9144 19.344 50.3522 20.3468 47.678C21.9347 44.2517 24.8596 43.5831 26.9487 40.8254C26.9487 43.7503 26.9487 42.246 26.9487 45.5052C26.9487 51.6263 25.9345 55.0033 20.3468 56.7035Z" fill="white"/>
<path d="M35.5413 57.0008C32.801 54.2077 31.4973 52.0018 31.0286 49.1845C30.6906 45.4233 32.8894 43.3819 33.3197 39.949C34.7822 42.482 34.0301 41.1793 35.6596 44.0019C38.7202 49.3029 39.5303 52.7345 35.5413 57.0008Z" fill="white"/>
<path d="M48.8519 49.6612C45.0822 48.6125 42.8503 47.354 41.0357 45.1485C38.8624 42.0602 39.7458 39.1929 38.4021 36.0047C40.9351 37.4672 39.6324 36.7151 42.455 38.3447C47.756 41.4052 50.1734 43.972 48.8519 49.6612Z" fill="white"/>
<path d="M56.7061 36.652C52.917 37.6286 50.3548 37.6547 47.6806 36.652C44.2543 35.0641 43.5858 32.1392 40.828 30.0501C43.7529 30.0501 42.2486 30.0501 45.5078 30.0501C51.6289 30.0501 55.0059 31.0643 56.7061 36.652Z" fill="white"/>
<path d="M57.0011 21.4583C54.208 24.1986 52.0021 25.5023 49.1848 25.971C45.4236 26.309 43.3822 24.1103 39.9493 23.6799C42.4823 22.2175 41.1796 22.9696 44.0022 21.34C49.3032 18.2794 52.7348 17.4693 57.0011 21.4583Z" fill="white"/>
<path d="M49.6607 8.15203C48.6119 11.9217 47.3534 14.1537 45.1479 15.9683C42.0596 18.1416 39.1923 17.2581 36.0042 18.6019C37.4666 16.0688 36.7145 17.3715 38.3441 14.549C41.4047 9.24798 43.9715 6.83056 49.6607 8.15203Z" fill="white"/>
<path d="M36.6543 0.297332C37.6309 4.08635 37.657 6.64856 36.6543 9.32277C35.0664 12.7491 32.1415 13.4176 30.0524 16.1754C30.0524 13.2505 30.0524 14.7547 30.0524 11.4956C30.0524 5.37445 31.0666 1.99751 36.6543 0.297332Z" fill="white"/>
<path d="M21.4598 0C24.2 2.79308 25.5038 4.99896 25.9725 7.81626C26.3105 11.5775 24.1117 13.6189 23.6814 17.0518C22.2189 14.5187 22.971 15.8215 21.3414 12.9989C18.2809 7.69788 17.4707 4.26625 21.4598 0Z" fill="white"/>
<path d="M8.14914 7.33898C11.9188 8.38771 14.1508 9.64621 15.9654 11.8517C18.1387 14.94 17.2552 17.8073 18.599 20.9955C16.0659 19.533 17.3687 20.2851 14.5461 18.6555C9.24509 15.595 6.82767 13.0282 8.14914 7.33898Z" fill="white"/>
<path d="M0.295019 20.3485C4.08404 19.3719 6.64625 19.3458 9.32046 20.3485C12.7468 21.9364 13.4153 24.8613 16.1731 26.9504C13.2482 26.9504 14.7524 26.9504 11.4932 26.9504C5.37214 26.9504 1.99519 25.9362 0.295019 20.3485Z" fill="white"/>
<path d="M90.9808 40.6928H64.0882V40.2177C67.2241 40.2177 68.602 38.8398 68.602 35.8465V10.8544C68.602 7.86109 67.2241 6.4832 64.0882 6.4832V6.00806H90.078L90.3631 13.3251H89.888C88.8902 8.90638 87.1797 8.05114 82.3334 8.05114H72.7356V21.2599H81.9532C85.4217 21.2599 86.9897 19.6919 86.9897 16.366H87.4648V28.1493H86.9897C86.9897 24.8234 85.4217 23.3029 81.9532 23.3029H72.7356V38.3172C75.2539 38.6498 77.392 38.6498 79.7201 38.6498H83.5687C88.5576 38.6498 90.7907 36.7967 93.1664 32.283H93.6415L90.9808 40.6928Z" fill="white"/>
<path d="M118.557 38.3647L111.573 41.4531L111.288 41.168C111.335 40.4078 111.335 38.7448 111.383 36.9393C109.625 39.0299 107.059 41.263 103.875 41.263C98.7916 41.263 95.5606 35.989 95.5606 29.7173C95.5606 23.0179 99.3142 16.2234 106.109 16.2234C108.864 16.2234 110.432 17.3638 111.288 18.0765V11.4246C111.288 9.61908 111.193 8.52627 109.625 8.52627C108.912 8.52627 108.294 8.71633 107.914 8.85887L107.724 8.43125L114.804 5.34288L115.089 5.62796C115.041 6.91082 114.994 10.7119 114.994 13.3726V35.3713C114.994 37.1769 115.089 38.2697 116.657 38.2697C117.369 38.2697 117.987 38.0796 118.367 37.9371L118.557 38.3647ZM106.014 38.3647C108.152 38.3647 109.957 37.2244 111.288 35.8465V25.0609C111.288 20.4521 109.292 17.6488 106.061 17.6488C101.642 17.6488 99.2192 22.4952 99.2192 28.1493C99.2192 34.9912 102.213 38.3647 106.014 38.3647Z" fill="white"/>
<path d="M138.62 33.4233L139 33.7084C138.002 36.2741 135.484 41.263 130.067 41.263C124.176 41.263 120.802 35.894 120.802 28.5294C120.802 21.6875 124.698 16.2234 130.732 16.2234C135.579 16.2234 138.905 19.977 138.762 25.251L138.43 25.5361H123.891C123.843 25.9637 123.843 26.4388 123.843 26.8664C123.843 33.1857 126.694 37.8896 131.588 37.8896C135.151 37.8896 137.289 35.7039 138.62 33.4233ZM129.735 17.7439C126.456 17.7439 124.698 20.5947 124.081 24.0156H134.914C134.581 20.0245 132.823 17.7439 129.735 17.7439Z" fill="white"/>
<path d="M151.651 40.6928H141.436V40.2177C143.859 40.2177 144.857 39.2199 144.857 36.9393V22.2101C144.857 20.4046 144.762 19.3118 143.194 19.3118C142.481 19.3118 141.911 19.5019 141.483 19.6444L141.293 19.2168L148.373 16.1284L148.658 16.4135C148.61 17.1262 148.563 18.6941 148.563 20.3571C150.273 18.314 152.934 16.2234 156.26 16.2234C160.631 16.2234 162.579 19.1218 162.579 23.8256V36.9393C162.579 39.2199 163.577 40.2177 166 40.2177V40.6928H155.785V40.2177C157.923 40.2177 158.873 39.2199 158.873 36.9393V24.6808C158.873 20.8798 157.495 18.6941 154.122 18.6941C151.936 18.6941 149.845 20.0245 148.563 21.5925V36.9393C148.563 39.2199 149.513 40.2177 151.651 40.2177V40.6928Z" fill="white"/>
<path d="M65.9298 53.3062V45.4204H69.029C69.8305 45.4204 70.4481 45.6483 70.8819 46.1042C71.2495 46.4939 71.4334 47.0012 71.4334 47.6262C71.4334 48.3615 71.2201 48.9203 70.7937 49.3027C70.3746 49.685 69.7533 49.8762 68.9297 49.8762H66.6688V53.3062H65.9298ZM66.6688 49.2475H68.8746C70.0805 49.2475 70.6834 48.7144 70.6834 47.6483C70.6834 47.1409 70.5326 46.7512 70.2312 46.4792C69.9371 46.2071 69.5069 46.0711 68.9408 46.0711H66.6688V49.2475Z" fill="white"/>
<path d="M73.4136 53.4386C72.8622 53.4386 72.4136 53.3026 72.0681 53.0305C71.7225 52.7585 71.5497 52.3651 71.5497 51.8504C71.5497 51.5269 71.6048 51.2548 71.7151 51.0342C71.8328 50.8063 72.0092 50.6298 72.2445 50.5048C72.4872 50.3798 72.7298 50.2879 72.9725 50.2291C73.2224 50.1629 73.5313 50.1078 73.8989 50.0637C74.5165 49.9901 74.9246 49.9129 75.1231 49.8321C75.329 49.7438 75.432 49.5637 75.432 49.2916V49.1813C75.432 48.4167 74.9761 48.0343 74.0643 48.0343C73.0497 48.0343 72.5166 48.4571 72.4651 49.3027H71.7923C71.8291 48.7365 72.0386 48.2917 72.421 47.9681C72.8033 47.6446 73.3511 47.4828 74.0643 47.4828C75.4099 47.4828 76.0827 48.0711 76.0827 49.2475V52.3467C76.0827 52.6629 76.2077 52.8283 76.4577 52.843C76.4944 52.843 76.579 52.8283 76.7113 52.7989H76.7444V53.2952C76.6121 53.354 76.4577 53.3834 76.2812 53.3834C75.7518 53.3834 75.4724 53.1151 75.443 52.5783V52.457H75.4099C74.9467 53.1114 74.2812 53.4386 73.4136 53.4386ZM73.5349 52.8871C74.1232 52.8871 74.5864 52.7217 74.9246 52.3908C75.2702 52.0526 75.443 51.6703 75.443 51.2438V50.2181C75.1636 50.3725 74.6709 50.4975 73.9651 50.5931C73.7298 50.6225 73.5423 50.6519 73.4026 50.6813C73.2702 50.7107 73.1195 50.7548 72.9504 50.8137C72.7886 50.8725 72.6636 50.9423 72.5754 51.0232C72.4945 51.1041 72.421 51.2144 72.3548 51.3541C72.296 51.4938 72.2666 51.6592 72.2666 51.8504C72.2666 52.5416 72.6894 52.8871 73.5349 52.8871Z" fill="white"/>
<path d="M77.2631 53.3062V47.6042H77.9469V48.663H77.9689C78.3586 47.9277 78.9395 47.5601 79.7115 47.5601C79.7777 47.5601 79.8402 47.5674 79.899 47.5821V48.2549C79.4505 48.1814 79.0461 48.2733 78.6858 48.5306C78.1932 48.8983 77.9469 49.4093 77.9469 50.0637V53.3062H77.2631Z" fill="white"/>
<path d="M80.5455 53.3062V45.4204H81.2293V50.3504L84.0638 47.6042H84.9351L82.7514 49.6666L85.1998 53.3062H84.4057L82.2771 50.1078L81.2293 51.1114V53.3062H80.5455Z" fill="white"/>
<path d="M89.3576 53.4496C88.7032 53.4496 88.148 53.2585 87.6922 52.8761C87.2363 52.4938 87.0083 51.9864 87.0083 51.3541C87.0083 50.7953 87.1591 50.3431 87.4605 49.9975C87.7694 49.6446 88.2216 49.299 88.8171 48.9608L88.6186 48.7071C88.1922 48.1483 87.9789 47.6078 87.9789 47.0858C87.9789 46.6446 88.137 46.2733 88.4532 45.9719C88.7693 45.6704 89.1627 45.5197 89.6333 45.5197C90.0892 45.5197 90.4715 45.663 90.7803 45.9498C91.0965 46.2366 91.2546 46.6299 91.2546 47.1299C91.2546 47.5711 91.1222 47.935 90.8575 48.2218C90.6002 48.5012 90.2215 48.7843 89.7215 49.071L91.4752 51.332C91.6737 50.8541 91.7766 50.3173 91.784 49.7218H92.4126C92.4126 50.5232 92.2435 51.2438 91.9053 51.8835L93.0082 53.3062H92.181L91.5193 52.457C90.9752 53.1188 90.2546 53.4496 89.3576 53.4496ZM89.3796 48.6299C89.7987 48.3872 90.1002 48.152 90.284 47.924C90.4752 47.6961 90.5708 47.424 90.5708 47.1079C90.5708 46.799 90.4825 46.5564 90.3061 46.3799C90.137 46.1961 89.9127 46.1042 89.6333 46.1042C89.3539 46.1042 89.1223 46.1961 88.9385 46.3799C88.7546 46.5564 88.6627 46.7954 88.6627 47.0968C88.6627 47.4865 88.8208 47.8909 89.137 48.31L89.3796 48.6299ZM89.3907 52.843C90.1112 52.843 90.6921 52.5452 91.1333 51.9497L89.159 49.4129C88.6885 49.6924 88.3319 49.9754 88.0892 50.2622C87.8466 50.5416 87.7252 50.9056 87.7252 51.3541C87.7252 51.7953 87.8797 52.1555 88.1885 52.4349C88.4973 52.707 88.898 52.843 89.3907 52.843Z" fill="white"/>
<path d="M98.4736 53.4607C97.3486 53.4607 96.4626 53.082 95.8156 52.3247C95.1759 51.5673 94.856 50.582 94.856 49.3688C94.856 48.1703 95.1869 47.1887 95.8487 46.424C96.5104 45.652 97.4222 45.266 98.5839 45.266C99.4074 45.266 100.095 45.4755 100.646 45.8946C101.205 46.3138 101.554 46.9167 101.694 47.7034H100.933C100.815 47.1226 100.547 46.6777 100.128 46.3689C99.7089 46.0601 99.1942 45.9057 98.5839 45.9057C97.6133 45.9057 96.878 46.2292 96.3781 46.8762C95.8781 47.5233 95.6281 48.3542 95.6281 49.3688C95.6281 50.3762 95.8781 51.2034 96.3781 51.8504C96.878 52.4901 97.5802 52.8099 98.4846 52.8099C99.3449 52.8099 99.992 52.5599 100.426 52.06C100.867 51.5526 101.088 50.9276 101.088 50.185V49.9093H98.5508V49.2585H101.815V53.3062H101.297L101.143 52.0489H101.11C100.507 52.9901 99.628 53.4607 98.4736 53.4607Z" fill="white"/>
<path d="M104.426 53.4386C103.874 53.4386 103.426 53.3026 103.08 53.0305C102.735 52.7585 102.562 52.3651 102.562 51.8504C102.562 51.5269 102.617 51.2548 102.727 51.0342C102.845 50.8063 103.021 50.6298 103.257 50.5048C103.499 50.3798 103.742 50.2879 103.985 50.2291C104.235 50.1629 104.543 50.1078 104.911 50.0637C105.529 49.9901 105.937 49.9129 106.135 49.8321C106.341 49.7438 106.444 49.5637 106.444 49.2916V49.1813C106.444 48.4167 105.988 48.0343 105.077 48.0343C104.062 48.0343 103.529 48.4571 103.477 49.3027H102.805C102.841 48.7365 103.051 48.2917 103.433 47.9681C103.816 47.6446 104.363 47.4828 105.077 47.4828C106.422 47.4828 107.095 48.0711 107.095 49.2475V52.3467C107.095 52.6629 107.22 52.8283 107.47 52.843C107.507 52.843 107.591 52.8283 107.724 52.7989H107.757V53.2952C107.624 53.354 107.47 53.3834 107.293 53.3834C106.764 53.3834 106.485 53.1151 106.455 52.5783V52.457H106.422C105.959 53.1114 105.293 53.4386 104.426 53.4386ZM104.547 52.8871C105.135 52.8871 105.599 52.7217 105.937 52.3908C106.282 52.0526 106.455 51.6703 106.455 51.2438V50.2181C106.176 50.3725 105.683 50.4975 104.977 50.5931C104.742 50.6225 104.554 50.6519 104.415 50.6813C104.282 50.7107 104.132 50.7548 103.963 50.8137C103.801 50.8725 103.676 50.9423 103.588 51.0232C103.507 51.1041 103.433 51.2144 103.367 51.3541C103.308 51.4938 103.279 51.6592 103.279 51.8504C103.279 52.5416 103.702 52.8871 104.547 52.8871Z" fill="white"/>
<path d="M108.275 53.3062V47.6042H108.959V48.663H108.981C109.371 47.9277 109.952 47.5601 110.724 47.5601C110.79 47.5601 110.852 47.5674 110.911 47.5821V48.2549C110.463 48.1814 110.058 48.2733 109.698 48.5306C109.205 48.8983 108.959 49.4093 108.959 50.0637V53.3062H108.275Z" fill="white"/>
<path d="M113.439 53.4607C112.682 53.4607 112.083 53.1849 111.642 52.6335C111.2 52.082 110.98 51.3614 110.98 50.4718C110.98 49.5527 111.212 48.8247 111.675 48.288C112.138 47.7512 112.719 47.4828 113.417 47.4828C114.278 47.4828 114.903 47.8395 115.292 48.5527H115.314V45.4204H115.998V53.3062H115.314V52.457H115.292C114.858 53.1261 114.241 53.4607 113.439 53.4607ZM113.461 52.8871C114.072 52.8871 114.542 52.6702 114.873 52.2364C115.204 51.7952 115.369 51.2107 115.369 50.4828C115.369 49.7622 115.2 49.1777 114.862 48.7291C114.531 48.2806 114.064 48.0564 113.461 48.0564C112.91 48.0564 112.476 48.2806 112.16 48.7291C111.844 49.1703 111.686 49.7549 111.686 50.4828C111.686 51.1887 111.836 51.7658 112.138 52.2144C112.447 52.6629 112.888 52.8871 113.461 52.8871Z" fill="white"/>
<path d="M119.398 53.4496C118.567 53.4496 117.916 53.1739 117.445 52.6224C116.975 52.0636 116.74 51.3431 116.74 50.4607C116.74 49.5931 116.979 48.8799 117.457 48.3211C117.934 47.7549 118.563 47.4718 119.342 47.4718C119.784 47.4718 120.166 47.5564 120.49 47.7255C120.82 47.8946 121.078 48.1299 121.262 48.4314C121.445 48.7328 121.578 49.0637 121.659 49.424C121.747 49.7769 121.791 50.1629 121.791 50.582H117.445C117.46 51.2585 117.633 51.81 117.964 52.2364C118.295 52.6555 118.773 52.8651 119.398 52.8651C120.265 52.8651 120.82 52.4386 121.063 51.5857H121.725C121.6 52.1592 121.335 52.6151 120.931 52.9533C120.534 53.2842 120.023 53.4496 119.398 53.4496ZM117.457 50.0416H121.074C121.059 49.446 120.905 48.9644 120.611 48.5968C120.324 48.2218 119.901 48.0343 119.342 48.0343C118.791 48.0343 118.354 48.2181 118.03 48.5858C117.714 48.9534 117.523 49.4387 117.457 50.0416Z" fill="white"/>
<path d="M122.528 53.3062V47.6042H123.212V48.4755H123.234C123.682 47.8137 124.318 47.4828 125.142 47.4828C125.686 47.4828 126.123 47.6409 126.454 47.9571C126.792 48.2659 126.962 48.6997 126.962 49.2585V53.3062H126.278V49.3247C126.278 48.4865 125.844 48.0674 124.976 48.0674C124.484 48.0674 124.065 48.2218 123.719 48.5306C123.381 48.8394 123.212 49.2255 123.212 49.6887V53.3062H122.528Z" fill="white"/>
</svg>
