<svg  viewBox="0 0 933 311" fill="none" xmlns="http://www.w3.org/2000/svg">
<path d="M1.60961 111.02C22.2823 105.692 36.2616 105.549 50.8519 111.02C69.5457 119.684 73.1933 135.642 88.2395 147.04C72.2814 147.04 80.4884 147.04 62.7065 147.04C29.3101 147.04 10.8857 141.507 1.60961 111.02Z" fill="#465643"/>
<path d="M0 193.918C15.2389 178.967 27.2741 171.854 42.645 169.297C63.1661 167.452 74.3041 179.449 93.0336 181.797C79.2134 189.776 86.3209 185.672 70.9213 194.563C41.9992 211.261 23.2764 215.682 0 193.918Z" fill="#465643"/>
<path d="M40.0489 266.516C45.7708 245.949 52.637 233.771 64.6701 223.871C81.5198 212.013 97.1637 216.834 114.558 209.502C106.579 223.322 110.682 216.215 101.791 231.614C85.0932 260.537 71.0888 273.726 40.0489 266.516Z" fill="#465643"/>
<path d="M111.011 309.371C105.682 288.698 105.54 274.719 111.011 260.129C119.674 241.435 135.633 237.787 147.031 222.741C147.031 238.699 147.031 230.492 147.031 248.274C147.031 281.67 141.497 300.095 111.011 309.371Z" fill="#465643"/>
<path d="M193.911 310.993C178.961 295.754 171.848 283.719 169.29 268.348C167.446 247.827 179.443 236.689 181.79 217.959C189.77 231.78 185.666 224.672 194.557 240.072C211.255 268.994 215.675 287.717 193.911 310.993Z" fill="#465643"/>
<path d="M266.533 270.949C245.966 265.227 233.788 258.361 223.888 246.328C212.031 229.478 216.851 213.834 209.52 196.44C223.34 204.419 216.232 200.315 231.632 209.206C260.554 225.905 273.743 239.909 266.533 270.949Z" fill="#465643"/>
<path d="M309.385 199.971C288.712 205.299 274.733 205.442 260.143 199.971C241.449 191.308 237.801 175.349 222.755 163.951C238.713 163.951 230.506 163.951 248.288 163.951C281.684 163.951 300.109 169.485 309.385 199.971Z" fill="#465643"/>
<path d="M310.995 117.075C295.756 132.026 283.721 139.139 268.35 141.696C247.828 143.541 236.69 131.544 217.961 129.196C231.781 121.217 224.674 125.321 240.073 116.43C268.995 99.7315 287.718 95.3115 310.995 117.075Z" fill="#465643"/>
<path d="M270.946 44.477C265.224 65.0442 258.358 77.2219 246.325 87.122C229.475 98.9796 213.831 94.1594 196.437 101.491C204.416 87.6706 200.312 94.7781 209.203 79.3785C225.901 50.4564 239.906 37.2672 270.946 44.477Z" fill="#465643"/>
<path d="M199.984 1.62223C205.312 22.2949 205.455 36.2742 199.984 50.8645C191.32 69.5583 175.362 73.2059 163.964 88.2521C163.964 72.294 163.964 80.501 163.964 62.7191C163.964 29.3227 169.497 10.8983 199.984 1.62223Z" fill="#465643"/>
<path d="M117.083 0C132.034 15.2389 139.147 27.2741 141.704 42.645C143.548 63.1661 131.552 74.3041 129.204 93.0336C121.225 79.2134 125.329 86.3209 116.438 70.9213C99.7394 41.9992 95.3193 23.2764 117.083 0Z" fill="#465643"/>
<path d="M44.4612 40.041C65.0285 45.7629 77.2061 52.6291 87.1063 64.6622C98.9638 81.5119 94.1436 97.1559 101.475 114.55C87.6549 106.571 94.7624 110.674 79.3628 101.784C50.4406 85.0853 37.2514 71.0809 44.4612 40.041Z" fill="#465643"/>
<path d="M1.60961 111.02C22.2823 105.692 36.2616 105.549 50.8519 111.02C69.5457 119.684 73.1933 135.642 88.2395 147.04C72.2814 147.04 80.4884 147.04 62.7065 147.04C29.3101 147.04 10.8857 141.507 1.60961 111.02Z" fill="#465643"/>
<path d="M523.666 222.018H376.941V219.426C394.05 219.426 401.568 211.908 401.568 195.576V59.2211C401.568 42.8896 394.05 35.372 376.941 35.372V32.7797H518.74L520.296 72.7011H517.703C512.259 48.5927 502.927 43.9266 476.486 43.9266H424.121V115.993H474.412C493.336 115.993 501.89 107.438 501.89 89.2919H504.483V153.581H501.89C501.89 135.435 493.336 127.139 474.412 127.139H424.121V209.056C437.86 210.871 449.526 210.871 462.228 210.871H483.226C510.445 210.871 522.629 200.761 535.59 176.134H538.182L523.666 222.018Z" fill="#465643"/>
<path d="M674.12 209.316L636.014 226.165L634.458 224.61C634.717 220.462 634.717 211.389 634.977 201.539C625.385 212.945 611.387 225.129 594.018 225.129C566.281 225.129 548.653 196.354 548.653 162.136C548.653 125.584 569.132 88.5142 606.202 88.5142C621.237 88.5142 629.792 94.7357 634.458 98.6242V62.3319C634.458 52.4812 633.94 46.5189 625.385 46.5189C621.497 46.5189 618.127 47.5558 616.053 48.3335L615.016 46.0004L653.641 29.1504L655.197 30.7058C654.937 37.705 654.678 58.4435 654.678 72.9604V192.984C654.678 202.835 655.197 208.797 663.751 208.797C667.64 208.797 671.01 207.76 673.084 206.982L674.12 209.316ZM605.684 209.316C617.349 209.316 627.2 203.094 634.458 195.576V136.731C634.458 111.586 623.571 96.2911 605.943 96.2911C581.834 96.2911 568.614 122.733 568.614 153.581C568.614 190.91 584.945 209.316 605.684 209.316Z" fill="#465643"/>
<path d="M783.581 182.356L785.654 183.911C780.21 197.909 766.471 225.129 736.919 225.129C704.774 225.129 686.369 195.836 686.369 155.655C686.369 118.326 707.626 88.5142 740.548 88.5142C766.99 88.5142 785.136 108.993 784.358 137.768L782.544 139.323H703.219C702.96 141.656 702.96 144.249 702.96 146.582C702.96 181.059 718.514 206.723 745.214 206.723C764.657 206.723 776.322 194.799 783.581 182.356ZM735.104 96.8096C717.218 96.8096 707.626 112.363 704.256 131.028H763.361C761.546 109.253 751.954 96.8096 735.104 96.8096Z" fill="#465643"/>
<path d="M854.678 222.018H798.944V219.426C812.165 219.426 817.609 213.982 817.609 201.539V121.177C817.609 111.326 817.09 105.364 808.535 105.364C804.647 105.364 801.536 106.401 799.203 107.179L798.166 104.846L836.792 87.9957L838.347 89.5511C838.088 93.4396 837.828 101.994 837.828 111.067C847.161 99.9203 861.678 88.5142 879.824 88.5142C903.673 88.5142 914.301 104.327 914.301 129.991V201.539C914.301 213.982 919.745 219.426 932.966 219.426V222.018H877.232V219.426C888.897 219.426 894.081 213.982 894.081 201.539V134.657C894.081 113.919 886.564 101.994 868.158 101.994C856.234 101.994 844.828 109.253 837.828 117.807V201.539C837.828 213.982 843.013 219.426 854.678 219.426V222.018Z" fill="#465643"/>
<path d="M386.989 290.836V247.811H403.898C408.271 247.811 411.64 249.055 414.007 251.542C416.013 253.668 417.016 256.436 417.016 259.846C417.016 263.858 415.853 266.906 413.526 268.992C411.239 271.078 407.849 272.122 403.356 272.122H391.021V290.836H386.989ZM391.021 268.692H403.055C409.635 268.692 412.924 265.783 412.924 259.966C412.924 257.198 412.102 255.072 410.457 253.588C408.852 252.103 406.505 251.361 403.417 251.361H391.021V268.692Z" fill="#465643"/>
<path d="M427.82 291.558C424.811 291.558 422.364 290.816 420.479 289.331C418.593 287.847 417.651 285.701 417.651 282.893C417.651 281.128 417.951 279.643 418.553 278.44C419.195 277.196 420.158 276.233 421.442 275.551C422.765 274.869 424.089 274.368 425.413 274.047C426.777 273.686 428.462 273.385 430.468 273.144C433.838 272.743 436.064 272.322 437.147 271.881C438.27 271.399 438.832 270.417 438.832 268.932V268.331C438.832 264.158 436.345 262.072 431.37 262.072C425.834 262.072 422.926 264.379 422.645 268.992H418.974C419.175 265.903 420.318 263.476 422.404 261.711C424.49 259.946 427.479 259.064 431.37 259.064C438.712 259.064 442.382 262.273 442.382 268.692V285.601C442.382 287.326 443.064 288.228 444.428 288.308C444.629 288.308 445.09 288.228 445.812 288.068H445.993V290.776C445.271 291.097 444.428 291.257 443.465 291.257C440.577 291.257 439.053 289.793 438.892 286.864V286.202H438.712C436.184 289.773 432.554 291.558 427.82 291.558ZM428.482 288.549C431.691 288.549 434.219 287.647 436.064 285.841C437.949 283.996 438.892 281.91 438.892 279.583V273.987C437.368 274.829 434.68 275.511 430.829 276.033C429.545 276.193 428.522 276.354 427.76 276.514C427.038 276.675 426.215 276.915 425.293 277.236C424.41 277.557 423.728 277.938 423.247 278.38C422.806 278.821 422.404 279.423 422.043 280.185C421.722 280.947 421.562 281.85 421.562 282.893C421.562 286.664 423.869 288.549 428.482 288.549Z" fill="#465643"/>
<path d="M448.822 290.836V259.726H452.553V265.502H452.674C454.8 261.491 457.969 259.485 462.181 259.485C462.542 259.485 462.883 259.525 463.204 259.605V263.276C460.757 262.875 458.551 263.376 456.585 264.78C453.897 266.786 452.553 269.574 452.553 273.144V290.836H448.822Z" fill="#465643"/>
<path d="M466.731 290.836V247.811H470.462V274.709L485.927 259.726H490.681L478.766 270.978L492.125 290.836H487.792L476.179 273.385L470.462 278.861V290.836H466.731Z" fill="#465643"/>
<path d="M514.809 291.618C511.239 291.618 508.21 290.575 505.723 288.489C503.236 286.403 501.992 283.635 501.992 280.185C501.992 277.136 502.815 274.669 504.459 272.783C506.144 270.858 508.611 268.972 511.861 267.127L510.778 265.743C508.451 262.694 507.288 259.746 507.288 256.897C507.288 254.49 508.15 252.465 509.875 250.82C511.6 249.175 513.746 248.353 516.314 248.353C518.801 248.353 520.887 249.135 522.572 250.699C524.297 252.264 525.159 254.41 525.159 257.138C525.159 259.545 524.437 261.531 522.993 263.095C521.589 264.62 519.523 266.164 516.795 267.729L526.363 280.065C527.446 277.457 528.008 274.529 528.048 271.279H531.478C531.478 275.652 530.555 279.583 528.71 283.073L534.727 290.836H530.214L526.604 286.202C523.635 289.813 519.704 291.618 514.809 291.618ZM514.93 265.322C517.216 263.998 518.861 262.714 519.864 261.471C520.907 260.227 521.429 258.743 521.429 257.018C521.429 255.333 520.947 254.009 519.984 253.046C519.062 252.043 517.838 251.542 516.314 251.542C514.789 251.542 513.526 252.043 512.523 253.046C511.52 254.009 511.018 255.313 511.018 256.958C511.018 259.084 511.881 261.29 513.606 263.577L514.93 265.322ZM514.99 288.308C518.921 288.308 522.09 286.684 524.497 283.434L513.726 269.594C511.159 271.119 509.213 272.663 507.889 274.228C506.565 275.752 505.904 277.738 505.904 280.185C505.904 282.592 506.746 284.558 508.431 286.082C510.116 287.566 512.302 288.308 514.99 288.308Z" fill="#465643"/>
<path d="M564.546 291.678C558.408 291.678 553.574 289.612 550.044 285.48C546.554 281.348 544.809 275.973 544.809 269.353C544.809 262.815 546.614 257.459 550.224 253.287C553.835 249.075 558.809 246.969 565.148 246.969C569.641 246.969 573.392 248.112 576.4 250.399C579.449 252.685 581.355 255.975 582.117 260.267H577.965C577.323 257.098 575.859 254.671 573.572 252.986C571.285 251.301 568.477 250.459 565.148 250.459C559.852 250.459 555.841 252.224 553.113 255.754C550.385 259.284 549.021 263.817 549.021 269.353C549.021 274.849 550.385 279.362 553.113 282.893C555.841 286.383 559.672 288.128 564.606 288.128C569.3 288.128 572.83 286.764 575.197 284.036C577.604 281.268 578.807 277.858 578.807 273.806V272.302H564.967V268.752H582.779V290.836H579.951L579.108 283.976H578.928C575.638 289.111 570.844 291.678 564.546 291.678Z" fill="#465643"/>
<path d="M597.021 291.558C594.012 291.558 591.565 290.816 589.68 289.331C587.794 287.847 586.851 285.701 586.851 282.893C586.851 281.128 587.152 279.643 587.754 278.44C588.396 277.196 589.359 276.233 590.642 275.551C591.966 274.869 593.29 274.368 594.614 274.047C595.978 273.686 597.663 273.385 599.669 273.144C603.038 272.743 605.265 272.322 606.348 271.881C607.471 271.399 608.033 270.417 608.033 268.932V268.331C608.033 264.158 605.546 262.072 600.571 262.072C595.035 262.072 592.127 264.379 591.846 268.992H588.175C588.376 265.903 589.519 263.476 591.605 261.711C593.691 259.946 596.68 259.064 600.571 259.064C607.912 259.064 611.583 262.273 611.583 268.692V285.601C611.583 287.326 612.265 288.228 613.629 288.308C613.83 288.308 614.291 288.228 615.013 288.068H615.193V290.776C614.471 291.097 613.629 291.257 612.666 291.257C609.778 291.257 608.253 289.793 608.093 286.864V286.202H607.912C605.385 289.773 601.755 291.558 597.021 291.558ZM597.683 288.549C600.892 288.549 603.419 287.647 605.265 285.841C607.15 283.996 608.093 281.91 608.093 279.583V273.987C606.568 274.829 603.881 275.511 600.03 276.033C598.746 276.193 597.723 276.354 596.961 276.514C596.239 276.675 595.416 276.915 594.493 277.236C593.611 277.557 592.929 277.938 592.448 278.38C592.006 278.821 591.605 279.423 591.244 280.185C590.923 280.947 590.763 281.85 590.763 282.893C590.763 286.664 593.069 288.549 597.683 288.549Z" fill="#465643"/>
<path d="M618.023 290.836V259.726H621.754V265.502H621.874C624 261.491 627.17 259.485 631.382 259.485C631.743 259.485 632.084 259.525 632.405 259.605V263.276C629.958 262.875 627.751 263.376 625.786 264.78C623.098 266.786 621.754 269.574 621.754 273.144V290.836H618.023Z" fill="#465643"/>
<path d="M646.198 291.678C642.066 291.678 638.797 290.174 636.39 287.165C633.983 284.156 632.779 280.225 632.779 275.371C632.779 270.356 634.043 266.385 636.57 263.456C639.098 260.528 642.267 259.064 646.078 259.064C650.772 259.064 654.182 261.009 656.308 264.901H656.428V247.811H660.159V290.836H656.428V286.202H656.308C653.941 289.853 650.571 291.678 646.198 291.678ZM646.319 288.549C649.648 288.549 652.216 287.366 654.021 284.999C655.826 282.592 656.729 279.403 656.729 275.431C656.729 271.5 655.806 268.31 653.961 265.863C652.156 263.416 649.608 262.193 646.319 262.193C643.31 262.193 640.943 263.416 639.218 265.863C637.493 268.27 636.631 271.46 636.631 275.431C636.631 279.282 637.453 282.431 639.098 284.879C640.783 287.326 643.19 288.549 646.319 288.549Z" fill="#465643"/>
<path d="M678.706 291.618C674.173 291.618 670.623 290.114 668.055 287.105C665.488 284.056 664.204 280.125 664.204 275.311C664.204 270.577 665.508 266.686 668.116 263.637C670.723 260.548 674.153 259.003 678.405 259.003C680.812 259.003 682.898 259.465 684.664 260.387C686.469 261.31 687.873 262.594 688.876 264.239C689.879 265.883 690.601 267.689 691.042 269.654C691.523 271.58 691.764 273.686 691.764 275.973H668.055C668.136 279.663 669.078 282.672 670.884 284.999C672.689 287.285 675.296 288.429 678.706 288.429C683.44 288.429 686.469 286.102 687.793 281.449H691.403C690.721 284.578 689.277 287.065 687.07 288.91C684.904 290.715 682.116 291.618 678.706 291.618ZM668.116 273.024H687.853C687.773 269.775 686.93 267.147 685.325 265.141C683.761 263.095 681.454 262.072 678.405 262.072C675.397 262.072 673.01 263.075 671.245 265.081C669.52 267.087 668.477 269.735 668.116 273.024Z" fill="#465643"/>
<path d="M695.784 290.836V259.726H699.515V264.479H699.636C702.083 260.869 705.553 259.064 710.046 259.064C713.014 259.064 715.401 259.926 717.207 261.651C719.052 263.336 719.975 265.703 719.975 268.752V290.836H716.244V269.113C716.244 264.54 713.877 262.253 709.143 262.253C706.455 262.253 704.169 263.095 702.283 264.78C700.438 266.465 699.515 268.571 699.515 271.099V290.836H695.784Z" fill="#465643"/>
</svg>
