<svg  viewBox="0 0 50 50" fill="none" xmlns="http://www.w3.org/2000/svg">
<path d="M0.259165 17.8494C3.58265 16.9927 5.83005 16.9698 8.17569 17.8494C11.181 19.2423 11.7674 21.8081 14.1864 23.6407C11.6208 23.6407 12.9403 23.6407 10.0815 23.6407C4.71248 23.6407 1.75045 22.751 0.259165 17.8494Z" fill="#465643"/>
<path d="M0 31.1772C2.44991 28.7734 4.38477 27.6298 6.85591 27.2186C10.155 26.9221 11.9456 28.8509 14.9567 29.2284C12.7349 30.5113 13.8775 29.8515 11.4018 31.281C6.75208 33.9657 3.74208 34.6764 0 31.1772Z" fill="#465643"/>
<path d="M6.43976 42.8492C7.35965 39.5424 8.46351 37.5845 10.398 35.9928C13.1069 34.0863 15.6219 34.8613 18.4183 33.6826C17.1356 35.9046 17.7953 34.7618 16.3659 37.2378C13.6814 41.8879 11.43 44.0084 6.43976 42.8492Z" fill="#465643"/>
<path d="M17.8432 49.7393C16.9865 46.4156 16.9636 44.168 17.8432 41.8222C19.236 38.8166 21.8015 38.2301 23.6339 35.811C23.6339 38.3767 23.6339 37.0572 23.6339 39.9162C23.6339 45.2857 22.7443 48.2479 17.8432 49.7393Z" fill="#465643"/>
<path d="M31.1747 50C28.7711 47.5499 27.6276 45.6149 27.2164 43.1435C26.92 39.8442 28.8486 38.0534 29.2261 35.0421C30.5088 37.2641 29.8491 36.1213 31.2785 38.5973C33.963 43.2474 34.6736 46.2576 31.1747 50Z" fill="#465643"/>
<path d="M42.8432 43.5623C39.5366 42.6423 37.5789 41.5384 35.9873 39.6037C34.081 36.8946 34.8559 34.3794 33.6772 31.5827C35.8991 32.8656 34.7564 32.2059 37.2321 33.6353C41.8819 36.3201 44.0023 38.5717 42.8432 43.5623Z" fill="#465643"/>
<path d="M49.7349 32.1505C46.4114 33.0072 44.164 33.0301 41.8184 32.1505C38.813 30.7575 38.2266 28.1918 35.8077 26.3592C38.3732 26.3592 37.0538 26.3592 39.9126 26.3592C45.2816 26.3592 48.2436 27.2489 49.7349 32.1505Z" fill="#465643"/>
<path d="M50 18.8228C47.5501 21.2266 45.6152 22.3702 43.1441 22.7814C39.845 23.0778 38.0544 21.1491 35.0433 20.7716C37.2651 19.4887 36.1225 20.1485 38.5982 18.719C43.2479 16.0342 46.2579 15.3236 50 18.8228Z" fill="#465643"/>
<path d="M43.5602 7.1504C42.6404 10.4572 41.5365 12.4151 39.602 14.0069C36.8931 15.9133 34.3781 15.1383 31.5817 16.3171C32.8644 14.0951 32.2047 15.2378 33.6341 12.7619C36.3186 8.11178 38.57 5.99121 43.5602 7.1504Z" fill="#465643"/>
<path d="M32.145 0.260663C33.0016 3.58442 33.0246 5.832 32.145 8.17783C30.7522 11.1834 28.1867 11.7699 26.3542 14.189C26.3542 11.6233 26.3542 12.9428 26.3542 10.0838C26.3542 4.71434 27.2438 1.75207 32.145 0.260663Z" fill="#465643"/>
<path d="M18.8253 0C21.2289 2.45011 22.3724 4.38512 22.7836 6.85647C23.08 10.1558 21.1514 11.9466 20.7739 14.9579C19.4912 12.7359 20.1509 13.8787 18.7215 11.4027C16.037 6.75263 15.3264 3.74238 18.8253 0Z" fill="#465643"/>
<path d="M7.14502 6.43733C10.4516 7.35729 12.4093 8.46125 14.0009 10.3959C15.9072 13.105 15.1323 15.6203 16.311 18.4169C14.0891 17.134 15.2318 17.7938 12.756 16.3643C8.10632 13.6796 5.98592 11.4279 7.14502 6.43733Z" fill="#465643"/>
<path d="M0.259165 17.8494C3.58265 16.9927 5.83005 16.9698 8.17569 17.8494C11.181 19.2423 11.7674 21.8081 14.1864 23.6407C11.6208 23.6407 12.9403 23.6407 10.0815 23.6407C4.71248 23.6407 1.75045 22.751 0.259165 17.8494Z" fill="#465643"/>
</svg>
