<svg  viewBox="0 0 705 337" fill="none" xmlns="http://www.w3.org/2000/svg">
<path d="M52.6093 28.8982C70.2109 35.7363 80.3278 42.8466 87.9876 54.3052C96.9482 70.1748 91.335 83.5219 96.2641 99.4742C84.7989 91.2404 90.6953 95.4749 77.9198 86.3002C53.9261 69.069 43.5441 55.5872 52.6093 28.8982Z" fill="#FFFDF6"/>
<path d="M8.68045 87.6217C27.3429 84.7428 39.6596 85.8421 52.0224 91.9357C67.7173 101.199 69.5298 115.564 81.7746 126.915C67.7286 125.517 74.9523 126.236 59.301 124.678C29.9062 121.752 14.1742 115.268 8.68045 87.6217Z" fill="#FFFDF6"/>
<path d="M0 160.447C14.7227 148.622 25.939 143.416 39.6922 142.512C57.916 142.687 66.6684 154.221 82.948 157.929C70.0848 163.741 76.7001 160.752 62.3668 167.228C35.4473 179.392 18.5807 181.642 0 160.447Z" fill="#FFFDF6"/>
<path d="M28.8532 227.832C35.6912 210.231 42.8016 200.114 54.2601 192.454C70.1297 183.494 83.4769 189.107 99.4291 184.178C91.1954 195.643 95.4299 189.746 86.2551 202.522C69.024 226.516 55.5422 236.898 28.8532 227.832Z" fill="#FFFDF6"/>
<path d="M87.5891 271.782C84.7103 253.12 85.8095 240.803 91.9031 228.44C101.166 212.745 115.532 210.933 126.882 198.688C125.484 212.734 126.203 205.511 124.645 221.162C121.72 250.557 115.235 266.289 87.5891 271.782Z" fill="#FFFDF6"/>
<path d="M251.544 52.6333C244.705 70.2349 237.595 80.3519 226.137 88.0116C210.267 96.9722 196.92 91.3591 180.968 96.2881C189.201 84.823 184.967 90.7193 194.142 77.9438C211.373 53.9501 224.855 43.5681 251.544 52.6333Z" fill="#FFFDF6"/>
<path d="M192.858 8.7234C195.737 27.3858 194.638 39.7026 188.545 52.0653C179.281 67.7602 164.916 69.5727 153.565 81.8175C154.963 67.7715 154.244 74.9952 155.802 59.3439C158.728 29.9492 165.212 14.2172 192.858 8.7234Z" fill="#FFFDF6"/>
<path d="M120 0C131.824 14.7227 137.031 25.939 137.935 39.6922C137.76 57.916 126.225 66.6684 122.518 82.948C116.706 70.0848 119.695 76.7001 113.218 62.3668C101.055 35.4473 98.8046 18.5807 120 0Z" fill="#FFFDF6"/>
<path d="M52.6093 28.8982C70.2109 35.7363 80.3278 42.8466 87.9876 54.3052C96.9482 70.1748 91.335 83.5219 96.2641 99.4742C84.7989 91.2404 90.6953 95.4749 77.9198 86.3002C53.9261 69.069 43.5441 55.5872 52.6093 28.8982Z" fill="#FFFDF6"/>
<path d="M295.142 331.888H148.267V329.293C165.394 329.293 172.92 321.768 172.92 305.42V168.925C172.92 152.576 165.394 145.051 148.267 145.051V142.456H290.212L291.769 182.418H289.174C283.724 158.285 274.383 153.614 247.914 153.614H195.496V225.754H245.838C264.781 225.754 273.345 217.191 273.345 199.026H275.94V263.381H273.345C273.345 245.216 264.781 236.913 245.838 236.913H195.496V318.913C209.249 320.73 220.926 320.73 233.642 320.73H254.661C281.908 320.73 294.104 310.609 307.079 285.957H309.674L295.142 331.888Z" fill="#FFFDF6"/>
<path d="M445.751 319.173L407.605 336.04L406.048 334.483C406.308 330.331 406.308 321.249 406.567 311.388C396.966 322.806 382.953 335.002 365.567 335.002C337.801 335.002 320.155 306.198 320.155 271.945C320.155 235.356 340.655 198.248 377.763 198.248C392.814 198.248 401.378 204.476 406.048 208.368V172.039C406.048 162.178 405.529 156.209 396.966 156.209C393.074 156.209 389.7 157.247 387.624 158.026L386.586 155.69L425.251 138.823L426.808 140.38C426.549 147.386 426.289 168.146 426.289 182.678V302.825C426.289 312.685 426.808 318.654 435.372 318.654C439.264 318.654 442.637 317.616 444.713 316.837L445.751 319.173ZM377.244 319.173C388.922 319.173 398.783 312.945 406.048 305.42V246.514C406.048 221.343 395.15 206.033 377.504 206.033C353.371 206.033 340.136 232.501 340.136 263.381C340.136 300.749 356.485 319.173 377.244 319.173Z" fill="#FFFDF6"/>
<path d="M555.324 292.185L557.4 293.742C551.95 307.755 538.197 335.002 508.614 335.002C476.437 335.002 458.013 305.679 458.013 265.457C458.013 228.09 479.291 198.248 512.247 198.248C538.716 198.248 556.881 218.748 556.102 247.552L554.286 249.109H474.88C474.62 251.444 474.62 254.039 474.62 256.375C474.62 290.888 490.19 316.578 516.918 316.578C536.38 316.578 548.058 304.641 555.324 292.185ZM506.798 206.552C488.893 206.552 479.291 222.121 475.918 240.805H535.083C533.266 219.007 523.665 206.552 506.798 206.552Z" fill="#FFFDF6"/>
<path d="M626.494 331.888H570.703V329.293C583.937 329.293 589.387 323.844 589.387 311.388V230.944C589.387 221.083 588.867 215.115 580.304 215.115C576.412 215.115 573.298 216.153 570.962 216.931L569.924 214.596L608.589 197.729L610.146 199.286C609.887 203.178 609.627 211.741 609.627 220.824C618.969 209.665 633.501 198.248 651.666 198.248C675.539 198.248 686.179 214.077 686.179 239.767V311.388C686.179 323.844 691.628 329.293 704.862 329.293V331.888H649.071V329.293C660.748 329.293 665.938 323.844 665.938 311.388V244.438C665.938 223.678 658.413 211.741 639.988 211.741C628.051 211.741 616.634 219.007 609.627 227.571V311.388C609.627 323.844 614.817 329.293 626.494 329.293V331.888Z" fill="#FFFDF6"/>
</svg>
